<svg width="35" height="35" viewBox="0 0 35 35" fill="none" xmlns="http://www.w3.org/2000/svg">
<g clip-path="url(#clip0_53_92)">
<path d="M26.2506 8.74996H23.334C23.334 5.52704 20.7236 2.91663 17.5007 2.91663C14.2777 2.91663 11.6673 5.52704 11.6673 8.74996H8.75065C7.14648 8.74996 5.83398 10.0625 5.83398 11.6666V29.1666C5.83398 30.7708 7.14648 32.0833 8.75065 32.0833H26.2506C27.8548 32.0833 29.1673 30.7708 29.1673 29.1666V11.6666C29.1673 10.0625 27.8548 8.74996 26.2506 8.74996ZM14.584 14.5833C14.584 15.3854 13.9277 16.0416 13.1257 16.0416C12.3236 16.0416 11.6673 15.3854 11.6673 14.5833V11.6666H14.584V14.5833ZM17.5007 5.83329C19.1048 5.83329 20.4173 7.14579 20.4173 8.74996H14.584C14.584 7.14579 15.8965 5.83329 17.5007 5.83329ZM23.334 14.5833C23.334 15.3854 22.6777 16.0416 21.8757 16.0416C21.0736 16.0416 20.4173 15.3854 20.4173 14.5833V11.6666H23.334V14.5833Z" fill="white"/>
</g>
<defs>
<clipPath id="clip0_53_92">
<rect width="35" height="35" fill="white"/>
</clipPath>
</defs>
</svg>
