<svg width="18" height="785" viewBox="0 0 18 785" fill="none" xmlns="http://www.w3.org/2000/svg">
<path d="M4.00074 0.137817L17.0916 0.137818L17.0916 8.95884H14.8097L14.8097 2.90557H11.6904V8.50501H9.40841L9.40841 2.90557H6.2827V8.98441H4.00074L4.00074 0.137817Z" fill="#181818"/>
<path d="M17.0916 19.0645L12.63 21.7044V21.8067L17.0916 24.4594V27.5851L10.5462 23.59L4.00073 27.6746L4.00074 24.4913L8.46877 21.8067V21.7044L4.00074 19.0197V15.8493L10.5462 19.9466L17.0916 15.926V19.0645Z" fill="#181818"/>
<path d="M4.00073 34.6465H17.0916V39.8113C17.0916 40.8042 16.902 41.65 16.5228 42.3489C16.1478 43.0478 15.6257 43.5804 14.9567 43.9469C14.2919 44.3177 13.5249 44.503 12.6556 44.503C11.7862 44.503 11.0192 44.3155 10.3544 43.9405C9.68965 43.5655 9.1719 43.0222 8.80116 42.3106C8.43042 41.6032 8.24505 40.7466 8.24505 39.7409V36.449H10.4631V39.2935C10.4631 39.8262 10.5547 40.2651 10.738 40.6103C10.9255 40.9597 11.1833 41.2196 11.5114 41.3901C11.8438 41.5648 12.2252 41.6522 12.6556 41.6522C13.0902 41.6522 13.4695 41.5648 13.7933 41.3901C14.1215 41.2196 14.375 40.9597 14.554 40.6103C14.7372 40.2608 14.8289 39.8177 14.8289 39.2807V37.4142H4.00073L4.00073 34.6465Z" fill="#181818"/>
<path d="M4.00073 51.6108H17.0916V54.3785H6.28269V59.9908L4.00073 59.9908L4.00073 51.6108Z" fill="#181818"/>
<path d="M10.5462 78.6537C9.11863 78.6537 7.90414 78.3831 6.90272 77.8419C5.9013 77.305 5.13639 76.5721 4.60798 75.6431C4.08383 74.7184 3.82176 73.6786 3.82176 72.5238C3.82176 71.3604 4.08596 70.3164 4.61437 69.3917C5.14278 68.4669 5.90769 67.7361 6.90911 67.1992C7.91053 66.6623 9.12289 66.3938 10.5462 66.3938C11.9737 66.3938 13.1882 66.6623 14.1897 67.1992C15.1911 67.7361 15.9539 68.4669 16.478 69.3917C17.0064 70.3164 17.2706 71.3604 17.2706 72.5238C17.2706 73.6786 17.0064 74.7184 16.478 75.6431C15.9539 76.5721 15.1911 77.305 14.1897 77.8419C13.1882 78.3831 11.9737 78.6537 10.5462 78.6537ZM10.5462 75.8476C11.4709 75.8476 12.2507 75.7091 12.8857 75.4321C13.5206 75.1594 14.0022 74.7738 14.3303 74.2752C14.6584 73.7766 14.8225 73.1928 14.8225 72.5238C14.8225 71.8547 14.6584 71.2709 14.3303 70.7723C14.0022 70.2738 13.5206 69.886 12.8857 69.609C12.2507 69.3363 11.4709 69.1999 10.5462 69.1999C9.62147 69.1999 8.84164 69.3363 8.2067 69.609C7.57176 69.886 7.09022 70.2738 6.7621 70.7723C6.43397 71.2709 6.26991 71.8547 6.26991 72.5238C6.26991 73.1928 6.43397 73.7766 6.7621 74.2752C7.09022 74.7738 7.57176 75.1594 8.2067 75.4321C8.84164 75.7091 9.62147 75.8476 10.5462 75.8476Z" fill="#181818"/>
<path d="M4.00073 86.014H17.0916V91.1788C17.0916 92.1674 16.9148 93.0112 16.5611 93.71C16.2117 94.4131 15.7152 94.9479 15.0718 95.3144C14.4326 95.6852 13.6804 95.8705 12.8154 95.8705C11.946 95.8705 11.1982 95.683 10.5718 95.308C9.9496 94.933 9.47232 94.3897 9.13994 93.6781C8.80755 92.9707 8.64136 92.1141 8.64136 91.1085L8.64136 87.6504H10.8658V90.661C10.8658 91.1894 10.9382 91.6283 11.0831 91.9778C11.228 92.3272 11.4453 92.5871 11.7351 92.7576C12.0249 92.9323 12.385 93.0197 12.8154 93.0197C13.25 93.0197 13.6165 92.9323 13.9148 92.7576C14.2131 92.5871 14.4389 92.3251 14.5924 91.9714C14.75 91.622 14.8289 91.1809 14.8289 90.6482V88.7817H4.00073L4.00073 86.014ZM9.95812 93.0836L4.00073 96.3371V93.2817L9.95812 90.0985V93.0836Z" fill="#181818"/>
<path d="M4.00073 103.136H17.0916V111.958H14.8097V105.904H11.6904V111.504H9.4084V105.904H6.28269L6.28269 111.983H4.00073L4.00073 103.136Z" fill="#181818"/>
<path d="M4.00073 131.2L4.00073 128.234L17.0916 132.754V136.32L4.00073 140.833L4.00073 137.867L14.1002 134.588V134.486L4.00073 131.2ZM9.14633 131.015V138.021H6.98582V131.015H9.14633Z" fill="#181818"/>
<path d="M4.00073 147.719H17.0916V150.487H6.28269L6.28269 156.099H4.00073L4.00073 147.719Z" fill="#181818"/>
<path d="M4.00073 163.242H17.0916V166.009H6.28269V171.622H4.00073L4.00073 163.242Z" fill="#181818"/>
<path d="M11.6264 194.307H9.46593L9.46593 188.337H11.6264V194.307Z" fill="#181818"/>
<path d="M17.0916 211.464V214.877L8.29618 218.483V218.636L17.0916 222.241L17.0916 225.654H4.00073V222.97H12.5213V222.861L4.06465 219.473V217.645L12.5533 214.257V214.149H4.00073L4.00073 211.464H17.0916Z" fill="#181818"/>
<path d="M4.00073 235.501L4.00073 232.535L17.0916 237.055V240.621L4.00073 245.134L4.00073 242.168L14.1002 238.889V238.787L4.00073 235.501ZM9.14632 235.316L9.14632 242.322H6.98581L6.98581 235.316H9.14632Z" fill="#181818"/>
<path d="M12.5085 262.955V260.155C12.8708 260.104 13.1925 260 13.4737 259.842C13.7592 259.684 14.0021 259.482 14.2024 259.235C14.4027 258.988 14.5561 258.702 14.6627 258.378C14.7692 258.059 14.8225 257.711 14.8225 257.336C14.8225 256.659 14.6541 256.069 14.3175 255.566C13.9851 255.063 13.4993 254.673 12.8601 254.396C12.2252 254.119 11.4539 253.98 10.5462 253.98C9.61294 253.98 8.82885 254.119 8.19391 254.396C7.55896 254.677 7.07956 255.069 6.7557 255.572C6.43183 256.075 6.2699 256.657 6.2699 257.317C6.2699 257.688 6.31891 258.031 6.41692 258.346C6.51493 258.666 6.65769 258.949 6.84519 259.196C7.03695 259.444 7.26919 259.648 7.54192 259.81C7.81465 259.976 8.12572 260.091 8.47516 260.155L8.46237 262.955C7.86152 262.882 7.28197 262.701 6.72374 262.412C6.16976 262.126 5.67331 261.74 5.23439 261.255C4.79973 260.773 4.45456 260.198 4.19888 259.529C3.94746 258.864 3.82175 258.112 3.82175 257.272C3.82175 256.105 4.08595 255.061 4.61436 254.14C5.14277 253.224 5.90769 252.5 6.90911 251.967C7.91053 251.439 9.12288 251.174 10.5462 251.174C11.9737 251.174 13.1882 251.443 14.1896 251.98C15.1911 252.517 15.9539 253.245 16.478 254.166C17.0064 255.086 17.2706 256.122 17.2706 257.272C17.2706 258.031 17.1641 258.734 16.951 259.382C16.7379 260.034 16.4269 260.611 16.0178 261.114C15.6129 261.617 15.1165 262.026 14.5284 262.341C13.9404 262.661 13.2671 262.865 12.5085 262.955Z" fill="#181818"/>
<path d="M5.7905 273.158L5.08737 273.088C4.52487 273.032 3.9645 272.926 3.40626 272.768C2.84376 272.615 2.33453 272.453 1.87856 272.282C1.4226 272.116 1.06464 271.982 0.804701 271.88L0.804701 270.115C1.05612 270.179 1.40768 270.267 1.85939 270.377C2.30683 270.488 2.80967 270.593 3.36791 270.691C3.92615 270.789 4.49504 270.85 5.07459 270.876L5.7905 270.908V273.158Z" fill="#181818"/>
<path d="M17.0916 292.637H4.00072V289.87H17.0916V292.637Z" fill="#181818"/>
<path d="M4.00072 300.225H17.0916V305.389C17.0916 306.382 16.902 307.228 16.5227 307.927C16.1477 308.626 15.6257 309.158 14.9567 309.525C14.2919 309.896 13.5249 310.081 12.6556 310.081C11.7862 310.081 11.0192 309.894 10.3544 309.519C9.68964 309.144 9.17189 308.6 8.80115 307.889C8.43041 307.181 8.24504 306.325 8.24504 305.319V302.027H10.4631V304.872C10.4631 305.404 10.5547 305.843 10.7379 306.188C10.9254 306.538 11.1833 306.798 11.5114 306.968C11.8438 307.143 12.2252 307.23 12.6556 307.23C13.0902 307.23 13.4695 307.143 13.7933 306.968C14.1215 306.798 14.375 306.538 14.554 306.188C14.7372 305.839 14.8288 305.396 14.8288 304.859V302.992H4.00072V300.225Z" fill="#181818"/>
<path d="M4.00072 317.934L4.00072 314.968L17.0916 319.487V323.054L4.00072 327.566L4.00072 324.6L14.1002 321.321V321.219L4.00072 317.934ZM9.14632 317.748L9.14632 324.754H6.98581V317.748H9.14632Z" fill="#181818"/>
<path d="M4.00072 339.093L4.00072 334.452H17.0916V339.131C17.0916 340.448 16.8296 341.581 16.3054 342.532C15.7855 343.482 15.0377 344.213 14.0618 344.724C13.0859 345.24 11.9183 345.497 10.559 345.497C9.19532 345.497 8.02345 345.24 7.04333 344.724C6.06322 344.213 5.31109 343.478 4.78694 342.519C4.26279 341.564 4.00072 340.422 4.00072 339.093ZM6.37217 337.22V338.978C6.37217 339.796 6.51706 340.484 6.80683 341.042C7.10086 341.605 7.5547 342.027 8.16833 342.308C8.78623 342.593 9.58311 342.736 10.559 342.736C11.5263 342.736 12.3168 342.593 12.9304 342.308C13.544 342.027 13.9957 341.607 14.2855 341.049C14.5753 340.49 14.7202 339.802 14.7202 338.984V337.22H6.37217Z" fill="#181818"/>
<path d="M5.79049 354.94L5.08737 354.87C4.52487 354.814 3.9645 354.708 3.40626 354.55C2.84376 354.397 2.33453 354.235 1.87856 354.064C1.4226 353.898 1.06464 353.764 0.804698 353.661L0.804698 351.897C1.05612 351.961 1.40768 352.049 1.85939 352.159C2.30683 352.27 2.80967 352.375 3.36791 352.473C3.92615 352.571 4.49504 352.632 5.07458 352.658L5.79049 352.69V354.94Z" fill="#181818"/>
<path d="M17.0916 374.419H4.00072V371.651H17.0916V374.419Z" fill="#181818"/>
<path d="M4.00072 382.006H17.0916V387.171C17.0916 388.164 16.902 389.01 16.5227 389.709C16.1477 390.408 15.6257 390.94 14.9567 391.307C14.2919 391.678 13.5249 391.863 12.6555 391.863C11.7862 391.863 11.0192 391.675 10.3544 391.3C9.68964 390.925 9.17188 390.382 8.80115 389.67C8.43041 388.963 8.24504 388.107 8.24504 387.101V383.809H10.4631V386.653C10.4631 387.186 10.5547 387.625 10.7379 387.97C10.9254 388.32 11.1832 388.58 11.5114 388.75C11.8438 388.925 12.2252 389.012 12.6555 389.012C13.0902 389.012 13.4695 388.925 13.7933 388.75C14.1215 388.58 14.375 388.32 14.554 387.97C14.7372 387.621 14.8288 387.178 14.8288 386.641V384.774H4.00072V382.006Z" fill="#181818"/>
<path d="M4.00072 398.971H17.0916L17.0916 401.738H11.6903V407.357H17.0916V410.118H4.00072L4.00072 407.357H9.40839V401.738H4.00072V398.971Z" fill="#181818"/>
<path d="M10.5462 429.74C9.11862 429.74 7.90413 429.47 6.90271 428.928C5.90129 428.392 5.13637 427.659 4.60796 426.73C4.08381 425.805 3.82174 424.765 3.82174 423.61C3.82174 422.447 4.08595 421.403 4.61435 420.478C5.14276 419.553 5.90768 418.823 6.9091 418.286C7.91052 417.749 9.12288 417.48 10.5462 417.48C11.9737 417.48 13.1882 417.749 14.1896 418.286C15.1911 418.823 15.9538 419.553 16.478 420.478C17.0064 421.403 17.2706 422.447 17.2706 423.61C17.2706 424.765 17.0064 425.805 16.478 426.73C15.9538 427.659 15.1911 428.392 14.1896 428.928C13.1882 429.47 11.9737 429.74 10.5462 429.74ZM10.5462 426.934C11.4709 426.934 12.2507 426.796 12.8857 426.519C13.5206 426.246 14.0021 425.86 14.3303 425.362C14.6584 424.863 14.8225 424.279 14.8225 423.61C14.8225 422.941 14.6584 422.357 14.3303 421.859C14.0021 421.36 13.5206 420.972 12.8857 420.695C12.2507 420.423 11.4709 420.286 10.5462 420.286C9.62146 420.286 8.84163 420.423 8.20668 420.695C7.57174 420.972 7.09021 421.36 6.76208 421.859C6.43396 422.357 6.26989 422.941 6.26989 423.61C6.26989 424.279 6.43396 424.863 6.76208 425.362C7.09021 425.86 7.57174 426.246 8.20668 426.519C8.84163 426.796 9.62146 426.934 10.5462 426.934Z" fill="#181818"/>
<path d="M17.0916 448.05H4.00072L4.00072 445.659L12.2401 439.964V439.868H4.00072V437.1H17.0916V439.529L8.85867 445.18V445.295H17.0916V448.05Z" fill="#181818"/>
<path d="M4.00072 455.647H17.0916V464.468H14.8097L14.8097 458.415H11.6903V464.014H9.40839L9.40839 458.415H6.28268V464.493H4.00072L4.00072 455.647Z" fill="#181818"/>
<path d="M5.79049 474.887L5.08736 474.816C4.52486 474.761 3.96449 474.654 3.40626 474.497C2.84376 474.343 2.33452 474.181 1.87856 474.011C1.42259 473.845 1.06464 473.711 0.804692 473.608L0.804693 471.844C1.05611 471.908 1.40768 471.995 1.85938 472.106C2.30682 472.217 2.80966 472.321 3.3679 472.419C3.92614 472.517 4.49503 472.579 5.07458 472.605L5.79049 472.637V474.887Z" fill="#181818"/>
<path d="M4.00071 494.545L17.0916 490.799V493.823L7.99574 495.99V496.098L17.0916 498.489V501.078L7.97657 503.462V503.577L17.0916 505.744V508.767L4.00071 505.022V502.324L12.5597 499.831V499.729L4.00071 497.242L4.00071 494.545Z" fill="#181818"/>
<path d="M4.00071 516.497V513.531L17.0916 518.05V521.617L4.00071 526.13V523.164L14.1001 519.884V519.782L4.00071 516.497ZM9.14631 516.311L9.14631 523.317H6.9858L6.9858 516.311H9.14631Z" fill="#181818"/>
<path d="M14.8097 530.917H17.0916V541.668H14.8097V537.661H4.00071V534.925H14.8097V530.917Z" fill="#181818"/>
<path d="M12.5085 559.702V556.902C12.8707 556.851 13.1925 556.746 13.4737 556.589C13.7592 556.431 14.0021 556.229 14.2024 555.982C14.4027 555.734 14.5561 555.449 14.6626 555.125C14.7692 554.805 14.8224 554.458 14.8224 554.083C14.8224 553.406 14.6541 552.815 14.3175 552.312C13.9851 551.81 13.4993 551.42 12.8601 551.143C12.2251 550.866 11.4538 550.727 10.5462 550.727C9.61293 550.727 8.82884 550.866 8.19389 551.143C7.55895 551.424 7.07955 551.816 6.75568 552.319C6.43182 552.822 6.26989 553.403 6.26989 554.064C6.26989 554.435 6.31889 554.778 6.4169 555.093C6.51492 555.413 6.65767 555.696 6.84517 555.943C7.03693 556.19 7.26918 556.395 7.5419 556.557C7.81463 556.723 8.12571 556.838 8.47514 556.902L8.46236 559.702C7.86151 559.629 7.28196 559.448 6.72372 559.158C6.16975 558.873 5.6733 558.487 5.23438 558.001C4.79972 557.52 4.45455 556.945 4.19887 556.276C3.94744 555.611 3.82173 554.859 3.82173 554.019C3.82173 552.852 4.08594 551.808 4.61435 550.887C5.14276 549.971 5.90767 549.246 6.90909 548.714C7.91051 548.185 9.12287 547.921 10.5462 547.921C11.9737 547.921 13.1882 548.19 14.1896 548.727C15.1911 549.263 15.9538 549.992 16.478 550.913C17.0064 551.833 17.2706 552.869 17.2706 554.019C17.2706 554.778 17.1641 555.481 16.951 556.129C16.7379 556.781 16.4268 557.358 16.0178 557.861C15.6129 558.364 15.1165 558.773 14.5284 559.088C13.9403 559.408 13.267 559.612 12.5085 559.702Z" fill="#181818"/>
<path d="M4.00071 566.996H17.0916V569.764H11.6903V575.383H17.0916V578.144H4.00071L4.00071 575.383H9.40838L9.40838 569.764H4.00071V566.996Z" fill="#181818"/>
<path d="M5.79048 588.645L5.08736 588.574C4.52486 588.519 3.96449 588.412 3.40625 588.255C2.84375 588.101 2.33452 587.939 1.87855 587.769C1.42259 587.603 1.06463 587.468 0.804688 587.366L0.804688 585.602C1.05611 585.666 1.40767 585.753 1.85938 585.864C2.30682 585.975 2.80966 586.079 3.3679 586.177C3.92614 586.275 4.49503 586.337 5.07457 586.363L5.79048 586.395V588.645Z" fill="#181818"/>
<path d="M4.00071 607.613V604.647L17.0916 609.166V612.733L4.00071 617.245L4.00071 614.279L14.1001 611V610.898L4.00071 607.613ZM9.14631 607.427V614.433H6.98579L6.9858 607.427H9.14631Z" fill="#181818"/>
<path d="M12.5085 635.066V632.267C12.8707 632.215 13.1925 632.111 13.4737 631.953C13.7592 631.796 14.0021 631.593 14.2024 631.346C14.4027 631.099 14.5561 630.813 14.6626 630.49C14.7692 630.17 14.8224 629.823 14.8224 629.448C14.8224 628.77 14.6541 628.18 14.3175 627.677C13.9851 627.174 13.4993 626.784 12.8601 626.507C12.2251 626.23 11.4538 626.092 10.5462 626.092C9.61293 626.092 8.82883 626.23 8.19389 626.507C7.55895 626.789 7.07954 627.181 6.75568 627.683C6.43182 628.186 6.26988 628.768 6.26988 629.428C6.26988 629.799 6.31889 630.142 6.4169 630.458C6.51491 630.777 6.65767 631.061 6.84517 631.308C7.03693 631.555 7.26917 631.759 7.5419 631.921C7.81463 632.088 8.12571 632.203 8.47514 632.267L8.46236 635.066C7.8615 634.994 7.28196 634.813 6.72372 634.523C6.16974 634.237 5.67329 633.852 5.23437 633.366C4.79971 632.884 4.45454 632.309 4.19886 631.64C3.94744 630.975 3.82173 630.223 3.82173 629.384C3.82173 628.216 4.08594 627.172 4.61435 626.252C5.14275 625.335 5.90767 624.611 6.90909 624.078C7.91051 623.55 9.12287 623.286 10.5462 623.286C11.9737 623.286 13.1882 623.554 14.1896 624.091C15.191 624.628 15.9538 625.357 16.478 626.277C17.0064 627.198 17.2706 628.233 17.2706 629.384C17.2706 630.142 17.1641 630.845 16.951 631.493C16.7379 632.145 16.4268 632.723 16.0178 633.225C15.6129 633.728 15.1165 634.137 14.5284 634.453C13.9403 634.772 13.267 634.977 12.5085 635.066Z" fill="#181818"/>
<path d="M12.5085 653.911V651.112C12.8707 651.061 13.1925 650.956 13.4737 650.798C13.7592 650.641 14.0021 650.438 14.2024 650.191C14.4027 649.944 14.5561 649.659 14.6626 649.335C14.7692 649.015 14.8224 648.668 14.8224 648.293C14.8224 647.615 14.6541 647.025 14.3175 646.522C13.9851 646.019 13.4993 645.629 12.8601 645.352C12.2251 645.075 11.4538 644.937 10.5462 644.937C9.61292 644.937 8.82883 645.075 8.19389 645.352C7.55895 645.634 7.07954 646.026 6.75568 646.529C6.43182 647.031 6.26988 647.613 6.26988 648.274C6.26988 648.644 6.31889 648.987 6.4169 649.303C6.51491 649.622 6.65767 649.906 6.84517 650.153C7.03693 650.4 7.26917 650.605 7.5419 650.766C7.81463 650.933 8.12571 651.048 8.47514 651.112L8.46236 653.911C7.8615 653.839 7.28196 653.658 6.72372 653.368C6.16974 653.083 5.67329 652.697 5.23437 652.211C4.79971 651.73 4.45454 651.154 4.19886 650.485C3.94744 649.82 3.82173 649.068 3.82173 648.229C3.82173 647.061 4.08594 646.017 4.61434 645.097C5.14275 644.181 5.90767 643.456 6.90909 642.923C7.91051 642.395 9.12287 642.131 10.5462 642.131C11.9737 642.131 13.1882 642.399 14.1896 642.936C15.191 643.473 15.9538 644.202 16.478 645.122C17.0064 646.043 17.2706 647.078 17.2706 648.229C17.2706 648.987 17.1641 649.691 16.951 650.338C16.7379 650.99 16.4268 651.568 16.0178 652.07C15.6129 652.573 15.1165 652.982 14.5284 653.298C13.9403 653.617 13.267 653.822 12.5085 653.911Z" fill="#181818"/>
<path d="M4.00071 661.206H17.0916L17.0916 670.027H14.8097V663.974H11.6903V669.573H9.40838V663.974H6.28267L6.28267 670.053H4.00071L4.00071 661.206Z" fill="#181818"/>
<path d="M13.3267 684.639C13.8423 684.588 14.2429 684.369 14.5284 683.981C14.8139 683.593 14.9567 683.067 14.9567 682.402C14.9567 681.95 14.8928 681.569 14.7649 681.258C14.6413 680.947 14.4687 680.708 14.2472 680.542C14.0256 680.38 13.7741 680.299 13.4929 680.299C13.2585 680.29 13.054 680.339 12.8793 680.446C12.7045 680.557 12.5533 680.708 12.4254 680.9C12.3018 681.092 12.1932 681.313 12.0994 681.565C12.0099 681.816 11.9332 682.084 11.8693 682.37L11.5881 683.546C11.4602 684.117 11.2898 684.641 11.0767 685.119C10.8636 685.596 10.6016 686.009 10.2905 686.359C9.9794 686.708 9.61292 686.979 9.19105 687.17C8.76917 687.366 8.28551 687.467 7.74005 687.471C6.93892 687.467 6.24431 687.262 5.65625 686.857C5.07244 686.457 4.6186 685.877 4.29474 685.119C3.97514 684.364 3.81534 683.455 3.81534 682.389C3.81534 681.332 3.97727 680.412 4.30113 679.628C4.625 678.848 5.1044 678.239 5.73934 677.8C6.37855 677.365 7.16903 677.137 8.11079 677.116V679.794C7.67187 679.824 7.30539 679.95 7.01136 680.171C6.72159 680.397 6.50213 680.697 6.35298 681.072C6.20809 681.452 6.13565 681.88 6.13565 682.357C6.13565 682.826 6.20383 683.233 6.34019 683.578C6.47656 683.927 6.66619 684.198 6.90909 684.39C7.15198 684.582 7.4311 684.677 7.74644 684.677C8.04048 684.677 8.28764 684.59 8.48792 684.415C8.68821 684.245 8.85866 683.994 8.99929 683.661C9.13991 683.333 9.26775 682.93 9.38281 682.453L9.74076 681.028C10.0092 679.924 10.429 679.053 11 678.413C11.571 677.774 12.3402 677.457 13.3075 677.461C14.1001 677.457 14.7926 677.668 15.3849 678.094C15.9773 678.524 16.4396 679.114 16.772 679.864C17.1044 680.614 17.2706 681.467 17.2706 682.421C17.2706 683.393 17.1044 684.241 16.772 684.965C16.4396 685.694 15.9773 686.261 15.3849 686.665C14.7926 687.07 14.1065 687.279 13.3267 687.292L13.3267 684.639Z" fill="#181818"/>
<path d="M13.3267 701.744C13.8423 701.693 14.2429 701.473 14.5284 701.086C14.8139 700.698 14.9567 700.172 14.9567 699.507C14.9567 699.055 14.8928 698.674 14.7649 698.363C14.6413 698.052 14.4687 697.813 14.2472 697.647C14.0256 697.485 13.7741 697.404 13.4929 697.404C13.2585 697.395 13.054 697.444 12.8793 697.551C12.7045 697.662 12.5533 697.813 12.4254 698.005C12.3018 698.197 12.1932 698.418 12.0994 698.669C12.0099 698.921 11.9332 699.189 11.8693 699.475L11.5881 700.651C11.4602 701.222 11.2898 701.746 11.0767 702.224C10.8636 702.701 10.6016 703.114 10.2905 703.464C9.9794 703.813 9.61292 704.084 9.19105 704.275C8.76917 704.471 8.28551 704.571 7.74005 704.576C6.93892 704.571 6.24431 704.367 5.65625 703.962C5.07244 703.562 4.6186 702.982 4.29474 702.224C3.97514 701.469 3.81534 700.559 3.81534 699.494C3.81534 698.437 3.97727 697.517 4.30113 696.733C4.625 695.953 5.1044 695.344 5.73934 694.905C6.37855 694.47 7.16903 694.242 8.11079 694.221V696.899C7.67187 696.929 7.30539 697.054 7.01136 697.276C6.72159 697.502 6.50213 697.802 6.35298 698.177C6.20809 698.557 6.13565 698.985 6.13565 699.462C6.13565 699.931 6.20383 700.338 6.34019 700.683C6.47656 701.032 6.66619 701.303 6.90909 701.495C7.15198 701.687 7.4311 701.782 7.74644 701.782C8.04048 701.782 8.28764 701.695 8.48792 701.52C8.68821 701.35 8.85866 701.098 8.99928 700.766C9.13991 700.438 9.26775 700.035 9.38281 699.558L9.74076 698.133C10.0092 697.029 10.429 696.157 11 695.518C11.571 694.879 12.3402 694.562 13.3075 694.566C14.1001 694.562 14.7926 694.772 15.3849 695.199C15.9773 695.629 16.4396 696.219 16.772 696.969C17.1044 697.719 17.2706 698.572 17.2706 699.526C17.2706 700.498 17.1044 701.346 16.772 702.07C16.4396 702.799 15.9773 703.366 15.3849 703.77C14.7926 704.175 14.1065 704.384 13.3267 704.397V701.744Z" fill="#181818"/>
<path d="M10.5462 723.777C9.1186 723.777 7.90411 723.507 6.90269 722.965C5.90127 722.429 5.13636 721.696 4.60795 720.767C4.0838 719.842 3.82173 718.802 3.82173 717.647C3.82173 716.484 4.08593 715.44 4.61434 714.515C5.14275 713.59 5.90767 712.86 6.90909 712.323C7.91051 711.786 9.12286 711.517 10.5462 711.517C11.9737 711.517 13.1882 711.786 14.1896 712.323C15.191 712.86 15.9538 713.59 16.478 714.515C17.0064 715.44 17.2706 716.484 17.2706 717.647C17.2706 718.802 17.0064 719.842 16.478 720.767C15.9538 721.696 15.191 722.429 14.1896 722.965C13.1882 723.507 11.9737 723.777 10.5462 723.777ZM10.5462 720.971C11.4709 720.971 12.2507 720.833 12.8856 720.556C13.5206 720.283 14.0021 719.897 14.3302 719.399C14.6584 718.9 14.8224 718.316 14.8224 717.647C14.8224 716.978 14.6584 716.394 14.3302 715.896C14.0021 715.397 13.5206 715.01 12.8856 714.733C12.2507 714.46 11.4709 714.323 10.5462 714.323C9.62144 714.323 8.84161 714.46 8.20667 714.733C7.57173 715.01 7.09019 715.397 6.76207 715.896C6.43394 716.394 6.26988 716.978 6.26988 717.647C6.26988 718.316 6.43394 718.9 6.76207 719.399C7.09019 719.897 7.57173 720.283 8.20667 720.556C8.84161 720.833 9.62144 720.971 10.5462 720.971Z" fill="#181818"/>
<path d="M4.0007 731.138H17.0916V736.302C17.0916 737.291 16.9148 738.135 16.5611 738.834C16.2116 739.537 15.7152 740.071 15.0717 740.438C14.4325 740.809 13.6804 740.994 12.8153 740.994C11.946 740.994 11.1981 740.807 10.5717 740.432C9.94957 740.057 9.4723 739.513 9.13991 738.802C8.80752 738.094 8.64133 737.238 8.64133 736.232V732.774H10.8658V735.785C10.8658 736.313 10.9382 736.752 11.0831 737.101C11.228 737.451 11.4453 737.711 11.7351 737.881C12.0249 738.056 12.3849 738.143 12.8153 738.143C13.25 738.143 13.6165 738.056 13.9148 737.881C14.2131 737.711 14.4389 737.449 14.5923 737.095C14.75 736.745 14.8288 736.304 14.8288 735.772V733.905H4.0007V731.138ZM9.95809 738.207L4.0007 741.461L4.0007 738.405L9.95809 735.222V738.207Z" fill="#181818"/>
<path d="M17.0916 751.028H4.0007V748.26H17.0916L17.0916 751.028Z" fill="#181818"/>
<path d="M4.0007 758.615H17.0916V767.436H14.8097V761.383H11.6903V766.982H9.40837L9.40837 761.383H6.28266L6.28266 767.462H4.0007L4.0007 758.615Z" fill="#181818"/>
<path d="M13.3267 782.048C13.8423 781.997 14.2429 781.777 14.5284 781.39C14.8139 781.002 14.9567 780.476 14.9567 779.811C14.9567 779.359 14.8927 778.978 14.7649 778.667C14.6413 778.355 14.4687 778.117 14.2472 777.951C14.0256 777.789 13.7741 777.708 13.4929 777.708C13.2585 777.699 13.054 777.748 12.8793 777.855C12.7045 777.966 12.5533 778.117 12.4254 778.309C12.3018 778.5 12.1932 778.722 12.0994 778.973C12.0099 779.225 11.9332 779.493 11.8693 779.779L11.5881 780.955C11.4602 781.526 11.2898 782.05 11.0767 782.527C10.8636 783.005 10.6016 783.418 10.2905 783.767C9.9794 784.117 9.61292 784.387 9.19104 784.579C8.76917 784.775 8.2855 784.875 7.74005 784.88C6.93891 784.875 6.24431 784.671 5.65624 784.266C5.07244 783.865 4.6186 783.286 4.29474 782.527C3.97513 781.773 3.81533 780.863 3.81533 779.798C3.81533 778.741 3.97726 777.821 4.30113 777.037C4.62499 776.257 5.1044 775.647 5.73934 775.208C6.37854 774.774 7.16903 774.546 8.11079 774.525V777.203C7.67187 777.233 7.30539 777.358 7.01136 777.58C6.72158 777.806 6.50212 778.106 6.35297 778.481C6.20809 778.86 6.13565 779.289 6.13565 779.766C6.13565 780.235 6.20383 780.642 6.34019 780.987C6.47655 781.336 6.66618 781.607 6.90908 781.799C7.15198 781.99 7.4311 782.086 7.74644 782.086C8.04047 782.086 8.28763 781.999 8.48792 781.824C8.6882 781.654 8.85866 781.402 8.99928 781.07C9.13991 780.742 9.26775 780.339 9.3828 779.862L9.74076 778.436C10.0092 777.333 10.429 776.461 11 775.822C11.571 775.183 12.3402 774.865 13.3075 774.87C14.1001 774.865 14.7926 775.076 15.3849 775.503C15.9773 775.933 16.4396 776.523 16.772 777.273C17.1044 778.023 17.2706 778.875 17.2706 779.83C17.2706 780.802 17.1044 781.65 16.772 782.374C16.4396 783.103 15.9773 783.669 15.3849 784.074C14.7926 784.479 14.1065 784.688 13.3267 784.701V782.048Z" fill="#181818"/>
</svg>
